<svg width="675" height="307" viewBox="0 0 675 307" fill="none" xmlns="http://www.w3.org/2000/svg">
<path d="M668.65 266.92C666.9 268.04 665.27 269.37 663.73 270.31C663.73 267.89 665.85 266.24 667.17 264.22C667.8 263.22 668.17 262.07 668.8 261.13C669.97 259.36 672.46 256.97 671.53 255.61C670.22 253.71 667.03 258.43 666.08 259.67C664.18 262.15 663.08 264.29 661.27 265.82C660.97 263.9 663.05 262.18 664.35 260.01C665.01 258.92 665.95 257.13 666.59 256.08C667.94 253.86 669.68 251.68 668.13 250.7C666.28 249.53 663.7 254.43 662.47 256.23C661.65 257.42 660.08 260.23 658.82 261.78C658.25 262.51 658.24 263.08 657.57 262.57C656.9 262.06 657.4 261.98 657.97 261.17C658.83 259.98 660.84 257.61 661.65 256.54C663.03 254.72 665.72 252.07 665.26 250.07C663.03 248.9 661.26 252.07 659.36 254.15C658.76 254.82 657.96 255.34 657.36 255.97C656.46 256.97 655.86 258.24 655 259.17C654.14 260.1 653 260.83 652.34 261.57C650.82 263.31 649.87 265.99 647.71 265.32C646.17 264.85 645.46 262.74 644.71 261.49C644.45 261.04 643.96 260.41 643.93 260.24C643.73 259.03 644.65 257.72 644.33 256.37C643.91 254.54 643.09 253.53 640.45 253.03C639.8 254.76 640.74 256.11 640.81 257.7C640.81 258.64 640.31 259.57 640.37 260.65C640.43 261.73 641.37 263.4 641.44 264.73C641.5 265.6 641.2 266.24 641.34 266.94C641.48 267.64 641.96 268.09 642.06 268.84C642.21 270.03 641.92 271.72 642.13 273.15C642.36 274.79 643.01 276.15 642.74 277.26C642.3 279.16 640.74 281.35 639.57 283.26C636.373 288.191 632.688 292.788 628.57 296.98C627.84 297.76 627.1 298.54 626.35 299.31C625.47 295.47 625.41 291.52 624.92 287.71C624.62 285.39 624.26 283.14 623.92 280.86C623.58 278.58 623.1 276.43 622.56 274.12C621.014 267.266 620.365 260.241 620.63 253.22C620.63 251.34 621.16 249.84 621.16 248.07C621.16 247.32 620.53 246.89 621.16 246.27C620.91 245.47 620.07 246 619.26 245.27C619.8 243.06 618.61 240.4 619.58 237.59C620.11 236.07 621.58 234.26 622.52 232.46C625.2 227.25 628.52 221.84 629.89 216.95C628.34 215.66 626.04 216.95 624.6 218.44C623.16 219.93 622.97 222.26 621.31 223.09C620.86 223.26 620.4 220.5 620.39 219.6C620.33 215.46 622.3 208.19 622.13 202.7C622.13 201.16 622.13 197.92 621.13 197.65C619.32 197.16 619.04 199.72 618.58 200.86C618.32 198.52 619.31 194.25 617.21 194.12C615.35 194 614.97 196.01 614.63 199.12C614.4 201.172 614.066 203.211 613.63 205.23C613.07 207.86 612.35 216.48 609.42 216.35C607.7 216.26 608.08 212.76 607.42 210.8C607.26 210.31 606.61 209.94 606.36 209.35C605.84 208.13 603.94 198.66 601.67 199.09C598.77 199.65 601.52 206.36 601.93 207.98C602.061 208.603 602.259 209.21 602.52 209.79C601.34 209.49 602.42 206.79 600.16 206.16C598.09 208.39 599.16 211.16 599.59 213.71C599.77 214.85 599.84 216.24 600.03 217.56C600.22 218.88 600.91 220 600.94 221.05C600.97 222.1 600.42 223.32 600.43 224.4C600.44 225.48 600.84 226.61 600.87 227.65C601.03 232.91 600.87 238.34 603.94 242.8C601 244.69 602.94 247.08 602.79 249.15C602.66 251.47 601.79 253.61 601.43 255.77L601.27 255.9C600.06 256.82 598.51 257.61 597.27 258.57C596.03 259.53 594.72 261.35 593.05 260.57C593.39 259.12 594.7 257.77 595.85 255.92C596.61 254.7 598.47 251.74 597.69 250.92C595.55 248.63 592.88 253.86 592.05 254.97C590.5 257.05 589.21 258.73 587.54 259.61C587.131 259.284 586.657 259.049 586.15 258.92C585.98 258.753 585.844 258.554 585.752 258.334C585.659 258.115 585.611 257.879 585.61 257.64C585.61 256.36 586.82 255.31 587.22 253.85C587.286 253.557 587.326 253.26 587.34 252.96C587.472 252.808 587.619 252.671 587.78 252.55C589.23 251.55 591.62 251.41 592.4 249.36C587.75 246.49 585.09 251.5 582.15 251.58C585.427 249.083 588.906 246.862 592.55 244.94C593.78 244.33 595.41 244.03 596.02 242.55C593.2 240.38 589.79 242.14 587.12 243.55C584.19 245.07 581.43 247.38 579 248.06C580.34 246.12 582.79 245.47 584.55 243.97C585.26 243.36 585.65 242.45 586.3 241.86C587.302 241.043 588.35 240.286 589.44 239.59C590.44 238.89 591.95 238.1 592.03 236.8C589.71 235.11 588.03 236.56 586.36 237.66C583.59 239.45 581.46 241.24 579.02 242.78C577.7 243.61 576.19 243.94 575.02 244.65C573.02 245.81 571.96 247.6 569.74 247.55C567.472 247.261 565.322 246.374 563.51 244.98C560.85 242.62 562.35 237.32 559.06 235.57C557.64 234.81 556.06 234.57 555.3 235.71C554.3 237.35 557.37 240.52 557.81 242.4C558.48 245.2 557.81 251.3 557.97 254.88C558.02 256.56 558.46 258.2 558.13 259.18C557.52 260.98 555.05 263.44 553.2 265.4C551.502 267.159 549.695 268.809 547.79 270.34C544.17 273.26 540.1 276.48 536.49 278.95C530.37 283.14 524.76 286.95 519.66 292.18C518.94 292.92 518.26 293.75 517.57 294.56C516.183 293.458 514.626 292.59 512.96 291.99C507.96 290.18 500.72 291.94 497.23 294.99C495.06 297.093 493.557 299.788 492.91 302.74C491.91 302.87 490.99 302.68 490.56 302.74C488.85 303.13 486.91 304.2 484.83 304.9C483.01 305.5 481.08 306.05 479.14 306.59L479.08 306.38C480.94 305.02 482.45 303.38 484.35 301.91C486.057 300.409 487.966 299.154 490.02 298.18C490.77 297.88 491.69 297.99 492.46 297.65C494.256 296.673 495.934 295.491 497.46 294.13C499.09 292.81 500.56 291.33 502.04 289.87C504.96 287.01 507.66 283.26 511.04 280.67C512.47 279.56 514.23 278.89 515.62 277.86C516.38 277.3 517.04 276.67 517.77 276.21C518.566 275.805 519.328 275.336 520.05 274.81C522.59 272.44 522.78 268.35 524.21 265.64C524.54 265.03 525.21 264.64 525.74 264.01C525.85 263.86 525.61 263.63 525.74 263.38C525.87 263.13 526.11 263.26 526.24 263.11C526.91 262.33 527.89 258.66 527.38 257.84C526.87 257.02 525.38 257.13 524.05 256.44C523.67 253.67 519.65 255.35 517.59 253.7C518.48 252.7 518.7 250.88 519.51 249.28C520.32 247.68 521.45 246.79 521.51 245.28C521.502 244.915 521.42 244.556 521.269 244.224C521.118 243.892 520.9 243.595 520.63 243.35C518.55 245.569 516.768 248.05 515.33 250.73C513.88 253.37 511.99 256.45 511.2 259.07C510.79 260.42 510.84 262.07 510.34 263.39C510.06 264.12 509.25 264.84 509.09 265.52C508.93 266.2 509.51 267.32 509.5 268.34C509.536 269.621 509.301 270.896 508.81 272.08C507.956 272.752 507.022 273.316 506.03 273.76C500.63 276.87 494.5 278.46 488.91 280.81C488.901 280.365 488.868 279.921 488.81 279.48C488.96 278.22 488.37 276.48 488.18 275.2C488.18 275.01 488.54 274.71 488.48 274.53C488.12 273.36 486.74 272.73 487.53 271.25C487.593 271.255 487.652 271.28 487.7 271.32C487.7 271.42 487.75 271.51 487.77 271.6C487.759 271.643 487.759 271.688 487.77 271.73C487.826 271.954 487.896 272.175 487.98 272.39C488.053 272.682 488.224 272.941 488.464 273.123C488.704 273.305 488.999 273.399 489.3 273.39C489.03 273.365 488.777 273.247 488.585 273.055C488.393 272.863 488.275 272.61 488.25 272.34C488.201 272.106 488.168 271.869 488.15 271.63C488.33 271.38 488.46 271.02 488.74 271.05C488.752 271.313 488.854 271.564 489.03 271.76C488.947 271.629 488.892 271.483 488.867 271.33C488.843 271.177 488.851 271.02 488.89 270.87C489.53 268.92 487.89 267.23 486.35 265.7C486.426 265.731 486.508 265.748 486.59 265.75C486.947 265.758 487.297 265.653 487.59 265.45C487.297 265.588 486.97 265.637 486.65 265.59C486.504 265.548 486.369 265.472 486.257 265.37C486.144 265.268 486.056 265.141 486 265C486.49 262.32 483.87 260.81 481.56 259.19C481.741 258.996 481.974 258.859 482.232 258.795C482.489 258.731 482.759 258.743 483.01 258.83C484.01 259.34 485.09 260.28 486.38 260.24C485.731 260.121 485.129 259.823 484.64 259.38C484.351 258.971 483.957 258.646 483.5 258.44C483.194 258.2 482.858 258.002 482.5 257.85C480.949 257.338 479.293 257.231 477.69 257.54C477.69 257.39 477.76 257.25 477.63 257.17C478.186 256.941 478.779 256.812 479.38 256.79H479.69C480.038 256.842 480.376 256.95 480.69 257.11C480.661 257.018 480.614 256.933 480.55 256.86C480.86 256.88 481.17 256.88 481.48 256.86C481.095 256.824 480.713 256.754 480.34 256.65C479.91 256.31 479.27 256.05 479.34 255.5C480.115 255.526 480.88 255.313 481.53 254.89C479.83 255.74 478.23 254.45 476.19 254.98H476.09C476.44 254.22 476.42 254.87 476.87 253.73L476.36 253.49C477.248 253.509 478.124 253.292 478.9 252.86C478.136 253.141 477.31 253.21 476.51 253.06C476.648 252.563 476.857 252.088 477.13 251.65C476.765 252.068 476.462 252.536 476.23 253.04C475.815 252.991 475.395 252.991 474.98 253.04C474.628 253.11 474.29 253.238 473.98 253.42L473.46 253.69C474.245 251.082 475.187 248.524 476.28 246.03C477.1 244.17 477.48 241.61 478.39 240.25C479.19 239.08 482.2 237.76 484.08 236.66C485.08 236.08 485.96 235.51 486.93 234.86C487.9 234.21 488.81 233.39 489.65 232.8C490.87 231.95 492.47 231.57 493.4 230.9C494.33 230.23 494.95 229.23 495.81 228.5C496.67 227.77 497.81 227.5 498.15 226.3C497.526 225.855 496.794 225.586 496.03 225.52C497.03 224.52 497.73 224.3 498.82 223.27C498.56 223.51 501.22 221.45 500.41 220.13C499.15 218.13 495.41 221.6 494.11 222.41C493.23 222.98 492.27 223.41 491.11 224.14C490.18 224.72 488.78 226.24 488.22 225.49C487.66 224.74 489.43 223.49 490.22 222.49C491.4 220.92 492.29 219.49 493.4 217.98C494.51 216.47 495.86 214.98 495.62 213.11C492.79 211.11 491.17 215.27 489.62 217.02C489.08 217.63 487.8 218.84 486.81 219.92C485.97 220.84 484.81 222.92 483.81 222.11C483.07 221.54 483.9 220.49 484.56 218.89C485.11 217.53 485.5 216.12 485.9 215.23C486.65 213.55 488.79 210.82 486.96 209.93C485.13 209.04 483.91 212.71 482.87 214.55C481.83 216.39 480.68 217.65 479.59 219.91C478.39 219.73 479.33 218.56 479.53 217.7C479.83 216.38 482.04 211.48 481.23 210.7C479.82 209.29 478.23 212.14 477.79 212.94C476.34 215.78 476.43 217.54 475.46 219.29C474.73 220.6 473.29 221.35 472.31 222.51C469.95 225.33 468.57 229.87 466.85 233.84C465.74 236.4 465.29 239.33 464.2 242.26C462.64 246.49 460.57 250.55 458.77 254.7C458.12 256.19 457.41 257.7 456.68 259.11L456.17 259.26C455.067 259.608 453.875 259.552 452.81 259.1C453.6 259.631 454.539 259.897 455.49 259.86C455.567 259.896 455.647 259.922 455.73 259.94C453.87 260.32 452.45 261.36 450.73 261.56C452.31 261.64 453.9 261.01 455.38 260.84C454.832 261.079 454.247 261.218 453.65 261.25C452.935 262.059 452.293 262.929 451.73 263.85L451.34 264.23C450.138 265.512 448.796 266.656 447.34 267.64C446.889 267.923 446.405 268.151 445.9 268.32C445.62 268.03 445.34 267.76 445.05 267.5L444.32 266.88L444.26 266.95C444.25 266.901 444.25 266.85 444.26 266.8C444.829 266.634 445.369 266.381 445.86 266.05C445.372 266.23 444.87 266.371 444.36 266.47C444.36 266.35 444.2 266.29 443.92 266.31C443.945 266.221 443.938 266.126 443.9 266.041C443.861 265.957 443.794 265.889 443.71 265.85C443.47 265.67 443.17 265.29 443.41 265.02C443.706 265.101 444.013 265.139 444.32 265.13C444.543 265.122 444.761 265.065 444.959 264.961C445.156 264.857 445.327 264.71 445.46 264.53C445.135 264.755 444.75 264.876 444.355 264.876C443.96 264.876 443.575 264.755 443.25 264.53C443.006 264.4 442.778 264.243 442.57 264.06L442.51 263.82C442.611 263.897 442.722 263.961 442.84 264.01C442.948 264.049 443.066 264.051 443.175 264.014C443.284 263.978 443.377 263.906 443.44 263.81C443.612 263.504 443.708 263.161 443.72 262.81C443.636 263.127 443.482 263.42 443.27 263.67C443.06 263.87 442.85 263.67 442.66 263.41C442.309 262.857 442.015 262.271 441.78 261.66L441.39 260.73C441.32 260.57 441.26 260.41 441.18 260.25C441.14 260.147 441.086 260.049 441.02 259.96L440.79 259.71C440.517 259.459 440.219 259.238 439.9 259.05C439.842 258.969 439.779 258.892 439.71 258.82C439.959 258.667 440.166 258.454 440.312 258.201C440.459 257.948 440.541 257.662 440.55 257.37C440.35 257.91 440 258.48 439.5 258.53C438.75 257.678 437.912 256.907 437 256.23C437.589 255.539 438.065 254.76 438.41 253.92C437.893 254.66 437.285 255.332 436.6 255.92C436.33 255.73 436.05 255.55 435.76 255.37C435.7 254.86 435.54 254.3 435.24 254.24C435.194 254.199 435.143 254.162 435.09 254.13C434.984 254.075 434.869 254.041 434.75 254.03L435.35 253.32C435.897 252.745 436.205 251.984 436.21 251.19C436 252.37 435.04 252.99 434.21 253.84L434.12 253.75C434.106 253.317 434.143 252.884 434.23 252.46C434.668 252.37 435.056 252.121 435.32 251.76C435.608 251.43 435.856 251.068 436.06 250.68C435.779 251.005 435.471 251.306 435.14 251.58C434.846 251.847 434.467 252.003 434.07 252.02H433.72C434.214 251.39 434.522 250.635 434.61 249.84C434.323 250.621 433.833 251.311 433.19 251.84L433.04 251.89C432.87 251.94 432.7 251.99 432.55 252.05C432.556 251.56 432.449 251.075 432.238 250.633C432.026 250.19 431.716 249.803 431.33 249.5C431.632 249.874 431.851 250.309 431.971 250.774C432.092 251.24 432.112 251.726 432.03 252.2C432.025 252.23 432.025 252.26 432.03 252.29C431.773 252.417 431.522 252.557 431.28 252.71C431.09 252.82 430.81 253 430.51 253.15L430.14 253.04C429.664 252.892 429.18 252.772 428.69 252.68C428.136 252.466 427.568 252.289 426.99 252.15L427.8 252.57C427.54 252.555 427.28 252.555 427.02 252.57H426.45C427.516 250.943 428.36 249.18 428.96 247.33C429.648 244.513 430.149 241.653 430.46 238.77C431.24 232.87 431.46 227.49 432.72 221.57C433.29 218.84 434.11 214.64 435.27 212.43C437.01 209.16 440.02 209.82 442.72 207.08C444.99 204.78 446.4 201.45 448.36 199.87C449.203 199.274 450.13 198.805 451.11 198.48C452.86 198.02 455.89 198.79 456.23 197.1C456.41 196.18 454.66 194.78 453 194.32C449.75 193.41 445.65 197.4 443.54 197.69C443.873 194.077 444.604 190.512 445.72 187.06C446.79 183.94 448.72 180.35 449.72 177C450.72 173.82 449.83 171.52 447.35 174.07C445.17 176.32 444.12 180.16 442.56 184.07C441.86 185.82 441.86 187.07 440.56 187.38C440.07 187.48 439.63 186.96 439.32 186.03C439.01 185.1 439.78 184.03 438.9 183.46C438.02 182.89 436.51 184.13 436.02 184C435.76 183.93 435.17 181.77 433.8 182.47C432.8 183.38 431.97 185.01 431.04 186.23C430.22 185.98 430.38 183.39 428.47 183.75C427.02 184.02 425.75 188.6 425.47 190.32C425.29 191.53 425.38 193.02 425.1 194.64C424.476 197.521 424.118 200.453 424.03 203.4C424.03 204.84 424.64 206.3 424.51 207.58C424.29 209.71 423.21 212.1 422.41 214.58C420.57 220.18 418.28 226.53 416.19 232.58C415.7 232.14 414.93 231.5 414.73 231.69C414.53 231.88 413.4 231.14 413.22 231.06C412.621 230.775 411.985 230.576 411.33 230.47C410.96 230.42 410.59 230.47 410.22 230.41C409.85 230.35 409.45 230.13 408.96 230.2C408.47 230.27 408.22 230.28 407.85 230.3C408.22 230.02 408.6 229.74 408.99 229.5C409.99 228.88 411.26 228.61 412.07 228.04C412.55 227.7 412.82 227.15 413.27 226.83C414.67 225.83 416.69 225.55 417.18 223.55C415.24 222.06 413.53 223.83 412.03 224.73C410.53 225.63 408.68 226.54 407.3 227.42C408.214 226.529 409.219 225.738 410.3 225.06C411.3 224.39 412.47 224.06 413.46 223.42C414.73 222.59 415.78 221.48 417.12 220.69C418.46 219.9 420.12 219.52 420.41 217.79C417.93 216.39 415.73 218.48 413.67 219.57C411.61 220.66 409.47 222.38 407.17 222.76C409.25 220.84 411.34 220.02 413.99 218.39C414.84 217.87 416.34 216.83 417.39 216.2C418.44 215.57 420.39 214.95 419.89 213.6C419.39 212.25 416.89 213.43 416.05 213.83C413.37 215.11 411.24 216.35 408.77 217.83C407.72 218.44 406.32 219.7 404.77 218.83C406.33 217.92 408.59 216.93 411.01 215.73C412.124 215.338 413.213 214.877 414.27 214.35C414.86 213.99 416.87 212.46 416.4 211.58C415.59 210.06 412.71 211.85 411.95 212.2C410.38 212.94 408.83 213.13 407.53 213.71C405.97 214.41 404.66 215.71 402.87 215.77C403.26 214.36 403.87 212.89 403.08 211.91C400.61 212.53 399.83 214.3 397.57 215.34C396.503 215.735 395.406 216.046 394.29 216.27C392.14 216.85 391.38 216.95 389.66 219.27C388.786 220.298 388.108 221.477 387.66 222.75C387.24 224.02 387.81 225.62 387.2 227.15C386.52 228.9 384.2 230.39 382.28 231.73C380.74 232.81 379.18 233.79 377.61 234.73C377.302 234.503 376.92 234.4 376.54 234.44C376.65 234.68 376.78 234.91 376.91 235.14C373.91 236.82 370.91 238.27 367.91 239.68C367.952 238.777 367.899 237.872 367.75 236.98C367.246 235.717 366.662 234.488 366 233.3C364.44 229.78 363.71 225.92 362.8 221.89C362.34 219.89 361.64 217.55 360.88 215.24C361.95 214.05 363.02 212.87 364.12 211.69C365.47 210.24 366.88 209.2 368.27 207.88C369.27 206.88 369.71 205.88 370.57 205.12C371.73 204.12 373.92 203.84 375.57 203.45C377.306 203.165 379.02 202.761 380.7 202.24C381.45 201.95 382.32 201.15 383.19 200.79C384.084 200.571 384.988 200.397 385.9 200.27C386.75 200.06 387.61 199.53 388.5 199.27C389.66 198.96 396.59 197.68 392.43 196.13C393.02 195.47 395.26 195.63 394.95 194.3C394.43 192.08 391.02 194.1 390.39 194.3C389.76 194.5 389.01 194.3 388.33 194.42C386.73 194.7 384.07 195.42 382.68 195.5C385.33 193.5 389.23 192.32 392.06 189.35C390.35 186.77 388.16 189.14 386.53 189.92C385.39 190.47 384.01 190.85 382.82 191.41C381.63 191.97 380.3 193.24 379.09 192.29C379.6 191.17 380.89 190.29 382.09 188.99C382.9 188.13 384.89 186.05 384.4 185.24C383.06 183.04 380.03 186.83 379.17 187.59C377.39 189.17 375.96 190.41 374.25 190.72C374.02 189.94 373.34 189.66 373.52 188.67C373.7 187.68 374.88 186.99 375.45 185.88C375.89 185.01 376.19 182.88 375.29 182.6C374.99 182.49 372.39 184.15 371.74 184.79C371.09 185.43 369.99 187 369.08 188.12C368.141 189.254 367.321 190.48 366.63 191.78C366.13 192.78 366.06 194.28 365.63 194.96C365.01 195.96 363.73 196.58 363.13 197.39C362.73 197.94 362.53 198.73 362.21 199.21C361.164 200.521 360.01 201.742 358.76 202.86L358.35 203.25C359.06 200.77 360.19 197.96 360.89 195.49C361.89 191.76 362.57 188.07 363.42 184.42C365.29 176.34 367.16 167.87 371.03 161.15C373.69 156.51 377.89 157.2 380.55 152.15C381.83 149.71 383.76 144.71 383.68 142.25C383.68 140.61 383.37 137.89 380.88 138.95C382.53 136.69 380.43 134.84 378.54 135.62C377.54 134.13 376.7 134.62 375.1 134.74C374.34 134.81 373.48 134.64 373.1 134.74C372.53 134.85 372.18 135.47 371.56 135.63C370.94 135.79 370.35 135.44 369.8 135.51C368.92 135.63 365.93 136.51 365.44 137.15C364.902 138.352 364.486 139.605 364.2 140.89C363.81 142.08 363.31 143.36 363.04 144.44C362.31 147.37 362.43 150.9 361.82 153.62C361.21 156.34 359.95 158.22 358.96 160.93C358.28 162.78 358.24 164.21 357.67 165.78C356.52 168.9 354.62 171.78 353.12 174.78C350.042 180.852 347.291 187.084 344.88 193.45C343.81 196.35 342.33 200.02 342.36 202.5C342.42 206.32 342.42 210.68 342.25 215.04L340.4 216.21C339.22 216.96 338.01 218.03 336.73 218.92C335.45 219.81 333.89 220.57 333.06 221.63C331.72 223.34 331.27 225.74 329.91 227.05C329.409 227.489 328.829 227.829 328.2 228.05C328.031 227.699 327.83 227.364 327.6 227.05C327.144 226.443 326.593 225.913 325.97 225.48C325.348 225.051 324.676 224.699 323.97 224.43C323.649 224.297 323.313 224.203 322.97 224.15C322.899 224.119 322.826 224.096 322.75 224.08C321.24 223.386 319.61 222.992 317.95 222.92H317.52C317.515 222.9 317.515 222.88 317.52 222.86C317.83 222.86 318.13 222.86 318.44 222.86C319.418 222.937 320.386 223.111 321.33 223.38C320.393 223.089 319.427 222.898 318.45 222.81C318.13 222.81 317.82 222.81 317.51 222.76C317.51 222.69 317.51 222.62 317.51 222.55V222.76C316.94 222.76 316.37 222.76 315.8 222.76C315.529 222.245 315.385 221.672 315.38 221.09C315.337 221.663 315.426 222.237 315.64 222.77C314.44 222.77 313.27 222.92 312.1 223.07C317.35 216.67 315.63 208.34 309.1 204.35C306.804 203.091 304.192 202.521 301.58 202.71C305.12 198.03 308.78 193.71 312.58 189.19C313.58 188.04 314.49 186.71 315.46 185.56C316.83 183.94 318.18 183.44 320.46 182.13C321.886 181.474 323.263 180.715 324.58 179.86C325.19 179.37 328.9 175.96 329.04 175.06C329.18 174.16 329.31 173.96 327.94 173.26C328.35 172.5 329.05 172.11 328.87 171.15C328.664 170.742 328.354 170.394 327.971 170.143C327.589 169.892 327.147 169.746 326.69 169.72C328.39 167.85 327.37 165.77 324.85 165.03C326.8 161.83 329.72 158.74 330.95 155.25C331.05 155.07 330.79 154.69 330.66 154.63C330.24 154.07 328.77 154.72 327.98 155.44C326.19 157.09 324.44 160.72 322.09 163.16C320.61 164.7 318.87 165.39 318.09 166.66C317.09 165.44 315.09 162.66 313.23 164.58C312.43 165.39 312.93 166.58 312.52 167.48C311.63 169.48 310.07 169.36 309.52 172.28C309.35 173.17 309.89 174.34 309.68 175.46C309.12 178.46 306.45 180.7 304.68 182.73C298.41 189.81 289.53 194.17 282.68 200.07C281.22 201.351 279.881 202.764 278.68 204.29C277.56 205.894 276.338 207.424 275.02 208.87C274.797 209.077 274.56 209.267 274.31 209.44C274.01 208.21 273.8 206.98 273.43 205.67C273.3 205.2 272.92 204.67 272.87 204.33C272.74 203.33 273.62 202.09 272.53 201.33C272 200.96 272.05 200.1 271.92 198.77C271.681 197.073 271.916 195.342 272.6 193.77C273.47 191.06 275.21 188.24 276.67 184.93C278.13 181.62 278.98 177.79 280.3 174.23C281.966 169.624 284.217 165.251 287 161.22C288 159.84 288.71 157.83 289.68 156.89C290.65 155.95 293.17 155.5 294.87 154.89C295.76 154.59 296.58 154.27 297.47 153.89C298.36 153.51 299.24 153.01 300.02 152.67C301.14 152.19 302.5 152.15 303.37 151.76C304.24 151.37 304.89 150.67 305.71 150.22C306.53 149.77 307.47 149.77 307.97 148.83C307.538 148.362 306.989 148.016 306.38 147.83C307.38 147.17 307.96 147.12 309.02 146.47C308.77 146.62 311.25 145.4 310.82 144.2C310.14 142.34 306.5 144.55 305.35 145C304.54 145.31 303.7 145.49 302.6 145.89C301.75 146.2 300.37 147.2 300.04 146.49C299.71 145.78 301.36 145.08 302.13 144.4C303.34 143.33 304.31 142.28 305.45 141.28C306.59 140.28 307.94 139.28 308.06 137.71C306.06 135.59 304.06 138.71 302.54 139.88C302 140.28 300.77 141.04 299.78 141.76C298.95 142.36 297.7 143.83 297.01 143.03C296.5 142.44 297.35 141.74 298.14 140.54C298.81 139.54 299.36 138.46 299.84 137.81C300.73 136.57 302.9 134.72 301.57 133.71C300.24 132.7 298.65 135.44 297.5 136.76C296.35 138.08 295.22 138.9 293.96 140.55C293.02 140.2 293.96 139.41 294.28 138.75C294.74 137.75 297.28 134.14 296.81 133.35C295.91 131.97 294.13 134.01 293.66 134.59C292.02 136.65 291.8 138.08 290.72 139.34C289.92 140.27 288.62 140.64 287.65 141.42C285.27 143.31 283.39 146.75 281.35 149.67C280.03 151.56 279.17 153.85 277.8 156.05C275.8 159.21 273.5 162.15 271.35 165.21C269.2 168.27 266.9 170.86 264.87 173.75L263.87 175.21C263.806 174.301 263.956 173.39 264.31 172.55C264.9 171.55 266.37 171.39 267.36 170.2C268.154 169.196 268.748 168.048 269.11 166.82C269.26 166.29 269.11 165.53 269.21 164.66C269.31 163.79 269.71 163.13 269.75 162.5C269.82 161.26 269.16 159.05 269.28 157.22C269.45 154.64 271.51 150.8 270.62 149.92C269.57 148.92 267.17 150.84 266.62 152.04C266.07 153.24 266.41 154.41 266.22 155.82C265.98 157.65 265.02 159.25 265.32 160.25C263.51 158.86 264.54 156.25 264.1 154.25C263.85 153.1 262.94 152.09 262.55 150.91C262.21 149.91 262.22 148.67 261.88 147.53C261.54 146.39 260.93 145.53 260.6 144.53C259.94 142.53 259.99 139.53 257.35 139.11C256.19 141.58 257.43 144.11 257.99 146.42C258.55 148.73 259.48 151.09 259.6 153.52C258.18 152.63 258.44 150.73 258.19 149.37C257.697 146.557 257.053 143.773 256.26 141.03C255.87 139.7 255.38 137.97 253.45 137.55C252.24 140.2 253.77 142.99 254.2 145.55C254.65 148.29 255 151.2 255.2 153.93C255.2 154.09 255.3 154.19 255.2 154.37C254.477 151.955 253.905 149.497 253.49 147.01C252.99 144.69 253.11 141.5 250.29 140.51C249.29 142 250 143.85 250.29 145.34C250.619 146.956 250.829 148.594 250.92 150.24C250.16 149.91 250.18 147.55 248.4 147.56C247.1 149.21 248.32 151 248.51 152.66C248.84 155.52 248.71 158.4 249.46 161.23C249.81 162.57 250.32 163.89 250.69 165.3C251.06 166.71 251.28 168.04 251.74 169.3C252.28 170.8 253.55 172.19 253.87 173.78C254.03 174.59 253.71 175.57 253.8 176.38C253.98 178.09 254.43 179.65 254.61 181.38C255.42 189.18 255.01 198.14 255.78 206.38C255.215 206.869 254.702 207.415 254.25 208.01C253.136 210.012 252.564 212.27 252.59 214.56C252.67 215.24 253.21 215.91 253.23 216.74C253.229 217.241 253.172 217.741 253.06 218.23C252.06 218.49 251 218.71 250.06 219.02C248.21 219.65 246.06 220.12 245.01 221.23C243.41 222.84 242.73 226.49 240.77 226.82C239.678 226.849 238.6 226.579 237.65 226.04C236.32 225.29 236.11 222.8 234.31 223.75C234.58 223.29 235.1 222.75 234.81 222.22C232.81 220.28 228.81 218.57 225.66 217.79C226.27 215.95 226.95 216.08 228.47 215.79C229.58 215.59 231.47 215.95 232.3 215.12C233.3 214.12 232.69 212.74 233.01 211.49C233.16 210.89 233.89 210.29 234.16 209.49C234.43 208.69 234.26 207.44 234.5 206.23C235.12 203.14 236.61 200.62 234.68 199.06C235.238 198.774 235.71 198.346 236.05 197.82C235.651 196.98 235.505 196.042 235.63 195.12L236.03 195.05L235.63 194.98C235.65 194.677 235.65 194.373 235.63 194.07C235.63 193.92 235.58 193.76 235.56 193.6H235.85C235.739 193.56 235.632 193.51 235.53 193.45C235.53 193.31 235.47 193.16 235.44 193.01C235.719 193.154 236.026 193.236 236.34 193.25C235.953 193.085 235.611 192.832 235.34 192.51C235.29 192.29 235.23 192.08 235.17 191.86C235.23 191.928 235.301 191.985 235.38 192.03C235.878 192.564 236.416 193.059 236.99 193.51C236.46 192.71 235.99 191.88 235.5 191.07C235.282 190.736 235.03 190.424 234.75 190.14V190.03C235.449 190.916 236.365 191.605 237.41 192.03C236.693 191.415 236.067 190.701 235.55 189.91H235.74C236.11 190.202 236.546 190.398 237.01 190.48C238.007 190.57 239.01 190.397 239.92 189.98C239.007 190.06 238.087 189.982 237.2 189.75C236.834 189.611 236.51 189.381 236.26 189.08C236.122 188.874 236.001 188.657 235.9 188.43L236.2 188.63C236.854 189.073 237.63 189.304 238.42 189.29C239.169 189.232 239.875 188.918 240.42 188.4C239.809 188.676 239.13 188.763 238.47 188.65C237.868 188.496 237.318 188.181 236.88 187.74C236.784 187.636 236.681 187.539 236.57 187.45C236.2 187.08 235.83 186.67 235.44 186.26L236.05 186.58C236.166 186.7 236.267 186.835 236.35 186.98L236.85 187.08C237.19 187.31 237.54 187.54 237.9 187.75C238.497 188.175 239.237 188.348 239.96 188.23C239.295 188.117 238.696 187.761 238.28 187.23C238 186.96 237.74 186.68 237.47 186.39C237.79 186.518 238.127 186.599 238.47 186.63C238.854 186.669 239.242 186.615 239.6 186.472C239.959 186.329 240.278 186.102 240.53 185.81C240.245 185.986 239.924 186.094 239.591 186.125C239.258 186.156 238.922 186.11 238.61 185.99C238.019 185.737 237.493 185.354 237.07 184.87C236.82 184.62 236.71 184.41 236.4 184.08C236.09 183.75 235.95 183.57 235.72 183.3C235.228 182.675 234.629 182.144 233.95 181.73C233.609 181.552 233.251 181.412 232.88 181.31C233.939 180.666 235.134 180.279 236.37 180.18C235.236 179.86 234.024 179.963 232.96 180.47C232.615 180.432 232.277 180.341 231.96 180.2C232.2 180.2 232.45 180.13 232.69 180.08C233.492 179.956 234.228 179.565 234.78 178.97C234.36 179.204 233.898 179.354 233.42 179.41C233.42 179.41 233.42 179.41 233.42 179.34C232.289 179.499 231.139 179.441 230.03 179.17C228.33 178.73 231.12 178.35 231.36 178.17C231.317 178.098 231.25 178.045 231.17 178.02C231.287 177.962 231.398 177.892 231.5 177.81C231.912 177.491 232.253 177.089 232.5 176.63C232.173 176.969 231.771 177.226 231.326 177.381C230.882 177.535 230.407 177.583 229.94 177.52C228.93 177.152 227.847 177.029 226.78 177.16L226.41 177.29C226.262 177.197 226.104 177.12 225.94 177.06C225.981 176.943 226.063 176.843 226.17 176.78L226.52 176.67C226.857 176.651 227.194 176.684 227.52 176.77C227.52 176.67 227.35 176.56 227.23 176.45C227.994 176.246 228.727 175.94 229.41 175.54C228.751 175.68 228.083 175.771 227.41 175.81C227.74 175.68 228.04 175.486 228.294 175.238C228.548 174.991 228.751 174.696 228.89 174.37C228.484 174.823 227.945 175.135 227.35 175.26C227.14 175.26 227.14 175.03 227.18 174.76C226.789 174.873 226.391 174.963 225.99 175.03C226.747 174.606 227.337 173.936 227.66 173.13C226.854 173.992 225.756 174.523 224.58 174.62L223.74 174.71C223.88 173.86 223.86 172.91 223.14 172.66C222.62 172.47 221.42 173.66 220.53 174.66C220.42 174.58 220.41 174.38 220.22 174.38C219.323 174.551 218.405 174.578 217.5 174.46C216.773 174.2 215.977 174.2 215.25 174.46C214.962 174.674 214.607 174.777 214.25 174.75C213.92 174.75 214.02 175.08 213.82 175.2C213.391 175.238 212.958 175.204 212.54 175.1C212.54 175.1 212.49 175.1 212.48 175.1C212.293 175.031 212.121 174.93 211.97 174.8C212.062 174.953 212.18 175.089 212.32 175.2C212.159 175.396 212.012 175.603 211.88 175.82C211.584 175.881 211.31 176.023 211.09 176.23C210.974 176.323 210.842 176.394 210.7 176.44C210.458 176.406 210.226 176.321 210.02 176.19C210.107 176.29 210.204 176.381 210.31 176.46C210.306 176.579 210.279 176.696 210.229 176.804C210.179 176.913 210.108 177.01 210.02 177.09C209.74 177.37 209.47 177.58 209.41 177.92C208.93 178.039 208.471 178.231 208.05 178.49C206.964 179.233 206.147 180.306 205.72 181.55C205.578 181.413 205.408 181.308 205.221 181.243C205.035 181.177 204.837 181.152 204.64 181.17C203.27 181.32 201.88 183.3 201.11 184.98C199.336 189.398 198.215 194.05 197.78 198.79C195.03 198.29 195.78 200.26 194.88 202.21C194.657 202.686 194.382 203.135 194.06 203.55C192.439 202.315 190.942 200.925 189.59 199.4C188.85 198.4 188.27 197 187.47 196.3C187.21 196.08 186.24 195.68 185.66 195.23C185.08 194.78 184.66 194.23 184.35 194.08C183.79 193.78 182.81 193.96 182.2 193.63C182.682 192.463 183.237 191.328 183.86 190.23C185.43 187.53 187.55 186.47 189.4 184.72C191.446 182.877 193.317 180.848 194.99 178.66C195.71 177.66 196.14 176.58 196.76 175.78C197.57 174.73 198.89 173.78 199.95 172.72C203.09 169.44 206.54 166.23 209.51 163.54C211.08 162.12 212.51 159.06 213.7 156.69C216.275 151.482 218.572 146.141 220.58 140.69C221.436 137.939 222.438 135.235 223.58 132.59C224.23 131.32 225.1 130.46 225.86 128.96C226.98 126.77 227.47 124.82 228.76 122.96C230.05 121.1 232.39 119.02 233.76 116.85C234.28 116.05 234.76 114.99 235.31 114.06C235.939 113.128 236.481 112.141 236.93 111.11C237.04 110.43 235.86 108.04 235.41 107.42C235.14 107.04 234.54 106.82 234.31 106.42C234.08 106.02 234.24 105.36 233.98 104.94C233.72 104.52 233.18 104.2 232.79 103.68C231.95 102.59 231.79 101.81 230.23 102.04C229.62 100.41 227.23 100.17 226.79 102.51C226 100.34 224.15 101.76 223.09 102.69C221.5 104.07 219.5 108.19 218.72 110.41C217.09 115.03 219.96 117.25 218.62 121.62C216.67 127.95 212.45 134.05 208.49 139.92C206.7 142.58 204.77 145.12 203.04 147.92C201.31 150.72 199.59 154.92 197.71 156.57C196.4 157.72 193.47 158.24 191.49 159.13C189.35 160.13 187.18 161.13 185.49 162.13C182.646 163.962 179.632 165.516 176.49 166.77C175.362 167.064 174.253 167.428 173.17 167.86C172.368 168.454 171.597 169.088 170.86 169.76C170.01 170.34 169.2 170.88 168.44 171.42L168.22 171.57L168.15 171.47C165.537 168.118 163.114 164.622 160.89 161C160.41 160.2 159.99 159.46 159.61 158.74V158.69C159.81 157.69 160.31 156.84 160.55 155.89C160.787 154.974 160.931 154.035 160.98 153.09C160.53 151.38 161.1 149.25 159.85 147.79C159.774 147.7 159.707 147.603 159.65 147.5C161.1 145.22 162.57 142.94 164.09 140.7C166.303 137.165 168.766 133.793 171.46 130.61C172.94 129.02 176.03 127.94 178.08 126.41C180.13 124.88 181.97 122.99 183.88 121.54C185.79 120.09 187.88 118.39 189.95 117.05C192.02 115.71 194.76 114.78 195.47 112.27C193.6 110.8 191.52 112.64 189.92 113.55C188.1 114.55 186.39 115.82 184.79 116.68C184.92 114.25 187.14 112.68 188.59 110.76C189.28 109.83 189.71 108.66 190.4 107.76C191.67 106.06 194.3 103.76 193.4 102.39C192.2 100.39 188.74 104.96 187.71 106.15C185.71 108.53 184.43 110.61 182.54 112.04C182.35 110.09 184.54 108.49 185.96 106.39C186.68 105.33 187.72 103.59 188.43 102.57C189.9 100.43 191.77 98.3401 190.27 97.2601C188.48 95.9901 185.62 100.76 184.27 102.49C183.38 103.64 181.66 106.34 180.27 107.85C179.66 108.55 179.62 109.12 178.97 108.57C178.32 108.02 178.84 107.97 179.46 107.19C180.38 106.04 182.53 103.79 183.46 102.75C184.94 101.01 187.79 98.5001 187.46 96.4701C185.29 95.1701 183.32 98.2001 181.31 100.23C180.68 100.87 179.85 101.35 179.31 101.94C178.31 102.94 177.67 104.14 176.76 105.02C175.85 105.9 174.64 106.57 173.96 107.27C172.33 108.94 171.23 111.57 169.1 110.78C167.59 110.21 166.99 108.07 166.32 106.78C166.055 106.363 165.818 105.929 165.61 105.48C165.47 104.27 166.47 103 166.23 101.63C165.91 99.7801 165.14 98.7101 162.52 98.0601C161.77 99.7601 162.65 101.16 162.62 102.76C162.62 103.76 162.02 104.61 162.01 105.69C162 106.77 162.84 108.51 162.86 109.85C162.86 110.72 162.53 111.35 162.63 112.06C162.73 112.77 163.18 113.25 163.24 114C163.33 115.2 162.94 116.88 163.07 118.33C163.21 119.99 163.79 121.33 163.45 122.48C162.9 124.36 161.21 126.48 159.94 128.31C157.634 131.552 155.066 134.599 152.26 137.42L151.93 137.11C151.922 136.827 151.848 136.549 151.715 136.299C151.581 136.05 151.391 135.834 151.16 135.67C150.808 135.438 150.409 135.289 149.992 135.234C149.574 135.178 149.15 135.218 148.75 135.35C148.567 135.295 148.38 135.255 148.19 135.23C147.125 133.562 146.147 131.839 145.26 130.07C147.72 124.9 150.64 119.81 152.62 114.79C152.868 114.178 153.085 113.554 153.27 112.92C153.83 110.92 153.67 108.51 154.41 106.92C155.15 105.33 156.91 104.56 154.99 103.04C157.859 100.018 160.274 96.5958 162.16 92.8801C162.83 91.4001 163.32 89.3501 162.63 88.3601C162.15 87.6701 161.42 88.0201 160.83 87.5401C160.04 86.9001 160.23 85.2601 158.83 85.4501C159.47 83.7701 158.01 81.5801 156.24 82.8901C155.7 83.2901 155.81 84.2201 154.94 84.4701C155.28 81.8501 156.75 78.4701 157.56 75.2001C157.84 74.0901 158.14 71.5801 157.56 71.2601C156.51 70.6701 155.26 72.9001 155.14 73.1201C154.327 74.9965 153.659 76.9321 153.14 78.9101C152.54 80.6901 151.84 84.6701 150.47 84.8001C148.88 84.9501 148.41 85.7201 147.21 88.0601C145.33 91.7301 145.21 93.8101 145.69 96.6401C145.92 97.77 145.735 98.945 145.17 99.9501C144.66 100.77 143.9 100.85 143.46 101.55C142.89 102.46 143.05 103.15 142.75 103.99C140.961 108.859 138.482 113.445 135.39 117.61C133.953 119.563 132.634 121.6 131.44 123.71C129.82 126.63 128.7 129.71 126.51 131.54C123.666 133.74 120.615 135.659 117.4 137.27C114.04 139.09 110.76 141.07 108.01 141.88C107.057 142.142 106.088 142.346 105.11 142.49L104.87 142.33C104.645 142.21 104.402 142.129 104.15 142.09C104.19 141.659 104.298 141.237 104.47 140.84C104.68 140.47 105.18 140.31 105.37 139.84C105.747 138.538 105.958 137.195 106 135.84C106.16 134.52 106.69 133.24 106.94 132C107.08 131.35 106.94 130.45 107.13 129.74C107.41 128.39 108.23 127.74 107.4 126.46C108.5 125.28 108.59 123.87 108.87 122.35C108.94 121.98 109.11 121.59 109.18 121.14C109.25 120.69 109.01 120.14 109.08 119.89C109.35 118.99 110.46 118.09 110.08 116.98C109.833 116.488 109.428 116.094 108.93 115.86C109.393 111.881 110.48 108.001 112.15 104.36C113.15 102.12 113.46 100.77 115.92 98.6901C117.16 97.6301 118.6 96.5801 119.92 95.5001C121.24 94.4201 122.43 93.1501 123.58 92.4001C125.168 91.4533 126.942 90.8598 128.78 90.6601C130.51 90.4201 132.34 90.6601 133.78 89.8401C132.28 87.5901 130.48 88.9601 128.83 88.5001C129.821 87.5574 130.93 86.7474 132.13 86.0901C133.32 85.5101 134.75 85.6201 135.56 84.5101C134.56 82.5101 132.36 83.3401 130.72 84.4201C131.472 83.4614 132.338 82.5983 133.3 81.8501C131.78 79.7801 130.41 81.6601 128.69 82.7101C127.54 83.4101 125.69 83.7101 124.78 85.0701C124.89 84.0701 126.34 82.9401 125.95 82.1701C125.56 81.4001 124.59 81.5901 124.01 81.9101C122.76 82.5901 123.01 83.2701 122.52 83.7501C122.03 84.2301 121.38 84.5101 120.87 84.9501C119.07 86.5501 118.94 87.4001 117.28 88.3701C116.08 89.0801 115.28 89.6201 114 89.4401C113.26 89.3501 112.54 88.7801 111.79 88.6401C110.967 88.6899 110.143 88.6899 109.32 88.6401C108.75 88.3501 108.43 87.6401 107.95 86.9601C111.2 83.7101 114.41 80.4701 117.51 77.3301C118.78 76.0401 119.92 74.4101 121.13 73.4301C122.34 72.4501 124.31 71.8001 125.13 71.0101C125.95 70.2201 125.96 69.5201 126.56 69.0101C128.49 67.4001 131.87 66.7801 134.56 65.2601C137.48 63.6301 140.17 61.6901 142.7 61.2601C144.13 61.0401 149.35 62.3701 149.7 60.4601C150.1 58.0601 144.7 58.1601 143.03 57.7001C144.45 55.8601 146.56 54.9801 147.95 53.8501C148.52 53.3901 148.88 52.6301 149.5 52.1801C150.94 51.1801 153.33 51.0501 154.11 48.9901C149.46 46.1201 146.8 51.1301 143.86 51.2101C147.139 48.7106 150.621 46.4895 154.27 44.5701C155.5 43.9601 157.12 43.6601 157.73 42.1801C154.91 40.0101 151.5 41.7701 148.83 43.1801C145.9 44.7101 143.14 47.0101 140.71 47.6901C142.06 45.7601 144.5 45.1001 146.27 43.6001C146.97 43.0001 147.36 42.0801 148.02 41.4901C149.02 40.6711 150.069 39.9131 151.16 39.2201C152.16 38.5201 153.66 37.7401 153.74 36.4301C151.42 34.7401 149.74 36.1901 148.07 37.2901C145.3 39.0801 143.18 40.8701 140.73 42.4101C139.41 43.2401 137.9 43.5701 136.73 44.2901C134.78 45.4501 133.67 47.2301 131.46 47.1801C129.191 46.8906 127.039 46.0075 125.22 44.6201C122.57 42.2501 124.06 36.9501 120.77 35.2001C119.36 34.4501 117.77 34.2001 117.01 35.3501C116.01 36.9801 119.08 40.1501 119.53 42.0301C120.19 44.8401 119.53 50.9301 119.68 54.5101C119.68 56.1901 120.17 57.8301 119.84 58.8101C119.23 60.6101 116.76 63.0701 114.91 65.0301C113.217 66.7937 111.41 68.4439 109.5 69.9701C105.89 72.8901 101.81 76.1101 98.2 78.5801C92.08 82.7801 86.48 86.5801 81.37 91.8201C79.57 93.6701 77.99 96.0901 75.98 97.2901C73.23 98.9401 69.59 98.8401 66.5 100.13C63.85 101.24 61.62 102.72 58.88 103.54C58.03 100.81 56.88 101.87 54.96 102.29C54.0666 102.384 53.1679 102.417 52.27 102.39C50.56 102.78 48.63 103.85 46.54 104.55C43.91 105.43 41.06 106.19 38.28 106.97C38.15 106.18 38.09 105.37 37.92 104.65C37.75 103.93 37.57 103.21 37.39 102.47L37.57 102.31C38.23 102.9 38.38 103.69 39.14 104.24C37.86 102.43 40.66 97.9401 42.67 96.4701C43.18 97.4175 43.8924 98.2411 44.7565 98.8823C45.6207 99.5235 46.6154 99.9666 47.67 100.18C45.67 98.8401 43.67 97.4801 44.98 94.8901C45.3 95.1701 45.74 94.6601 45.41 95.2901C45.94 95.2901 45.41 94.6501 45.87 94.2901C46.45 94.8601 46.73 95.5501 47.51 96.0501C47.7803 96.5587 48.1166 97.0294 48.51 97.4501C47.61 96.1501 47.42 94.5801 46.97 93.0601V92.9701C47.0256 92.931 47.092 92.91 47.16 92.9101C47.5063 93.5916 47.9979 94.189 48.6 94.6601C48.1614 94.1926 47.8213 93.6416 47.6 93.0401C47.9 92.2901 47.09 91.9601 47.41 91.2101C47.4486 91.2454 47.4822 91.2857 47.51 91.3301C47.69 91.5601 47.87 91.8001 48.04 92.0401C48.0645 92.122 48.1016 92.1996 48.15 92.2701C48.6355 93.0586 49.2166 93.7841 49.88 94.4301C49.2424 93.5174 48.7122 92.5343 48.3 91.5001C49.18 91.4201 50.19 91.6701 51.06 91.5701C51 91.2001 50.32 91.2001 49.54 91.0501H49.71C50.5409 91.1187 51.3768 91.0061 52.16 90.7201C51.3708 90.8676 50.5591 90.8437 49.78 90.6501C49.4376 90.625 49.1036 90.5315 48.7979 90.3752C48.4922 90.2189 48.2209 90.003 48 89.7401C48.4 88.9501 48.65 90.1001 49.26 90.1001C49.2321 89.7914 49.1887 89.4844 49.13 89.1801C49.4822 89.4662 49.914 89.6369 50.3666 89.6691C50.8192 89.7013 51.2708 89.5934 51.66 89.3601C51.2817 89.5145 50.8652 89.5493 50.4665 89.4599C50.0679 89.3706 49.7061 89.1612 49.43 88.8601C49.0359 88.1411 48.8166 87.3395 48.79 86.5201L48.7 85.5801H48.57C48.5652 84.5435 48.7906 83.5189 49.23 82.5801C49.67 82.7101 49.7 82.9901 50.01 83.1701C50.1432 83.4487 50.3041 83.7134 50.49 83.9601C50.8179 84.3795 51.2712 84.6833 51.7839 84.8272C52.2965 84.9711 52.8417 84.9476 53.34 84.7601C52.8839 84.8441 52.413 84.7832 51.9933 84.5859C51.5736 84.3886 51.2263 84.0648 51 83.6601C50.6151 82.7878 50.4207 81.8434 50.43 80.8901C50.4382 80.3479 50.4014 79.8061 50.32 79.2701C50.47 78.0101 49.89 76.2701 49.69 74.9901C49.69 74.8101 50.06 74.5001 50 74.3201C49.63 73.1501 48.26 72.5201 49 71.0401C49.0649 71.0436 49.1259 71.0723 49.17 71.1201L49.23 71.4001C49.2254 71.4433 49.2254 71.4868 49.23 71.5301C49.3 71.7401 49.36 71.9601 49.45 72.1801C49.5174 72.4734 49.6853 72.7339 49.9245 72.9165C50.1637 73.0991 50.4593 73.1924 50.76 73.1801C50.5057 73.1486 50.2693 73.0331 50.0881 72.8519C49.907 72.6708 49.7915 72.4343 49.76 72.1801C49.7055 71.9469 49.672 71.7092 49.66 71.4701C49.83 71.2301 49.96 70.8601 50.25 70.8901C50.2565 71.1524 50.3557 71.4039 50.53 71.6001C50.4507 71.4676 50.3984 71.3208 50.3761 71.1681C50.3537 71.0153 50.3619 70.8596 50.4 70.7101C51.04 68.7101 49.4 67.0701 47.86 65.5401C47.9392 65.5562 48.0208 65.5562 48.1 65.5401C48.4574 65.5539 48.8092 65.4484 49.1 65.2401C48.8074 65.3785 48.4803 65.4272 48.16 65.3801C48.0233 65.338 47.8973 65.2672 47.7903 65.1723C47.6834 65.0774 47.598 64.9607 47.54 64.8301C48 62.1201 45.4 60.6101 43.1 59.0001C43.2809 58.8062 43.5142 58.6689 43.7716 58.605C44.029 58.5411 44.2994 58.5533 44.55 58.6401C45.55 59.1501 46.62 60.0901 47.91 60.0501C47.2612 59.9311 46.6586 59.6332 46.17 59.1901C45.8751 58.7691 45.4705 58.437 45 58.2301C44.6937 57.9908 44.3576 57.7924 44 57.6401C42.452 57.1324 40.8005 57.0257 39.2 57.3301H39.14C39.2 57.1801 39.22 57.0401 39.08 56.9601C39.6397 56.7306 40.2355 56.602 40.84 56.5801H41.14C41.4877 56.6351 41.8249 56.743 42.14 56.9001C42.1149 56.8085 42.0706 56.7232 42.01 56.6501C42.3163 56.6701 42.6237 56.6701 42.93 56.6501C42.5487 56.6126 42.171 56.5457 41.8 56.4501C41.36 56.1001 40.72 55.8401 40.8 55.2901C41.5791 55.3223 42.3487 55.109 43 54.6801C41.29 55.5401 39.7 54.2401 37.66 54.7701H37.55C37.9 54.0101 37.88 54.6601 38.33 53.5201L37.82 53.2901C38.7076 53.3093 39.5843 53.0918 40.36 52.6601C39.5971 52.9462 38.7698 53.0155 37.97 52.8601C38.1036 52.3643 38.3127 51.8921 38.59 51.4601C38.2201 51.8725 37.9134 52.3376 37.68 52.8401C37.2681 52.7906 36.8519 52.7906 36.44 52.8401C36.0885 52.9125 35.7509 53.0408 35.44 53.2201C35.32 53.2201 35.2 53.3401 35.07 53.4101C35.79 51.6201 36.48 49.8301 37.16 48.0201C38.38 44.7901 39.23 41.3301 40.77 38.2701C41.55 36.7401 42.6 35.7001 43.52 33.9001C44.87 31.2601 45.46 28.9001 47.02 26.6301C48.58 24.3601 51.38 21.8901 53.07 19.2801C53.7 18.2801 54.31 17.0401 54.93 15.9201C55.6991 14.8026 56.3524 13.6098 56.88 12.3601C57.02 11.5501 55.59 8.67006 55.06 7.93006C54.73 7.47006 54.06 7.20006 53.74 6.68006C53.42 6.16006 53.7 5.51006 53.39 5.00006C53.08 4.49006 52.39 4.10006 51.96 3.48006C50.96 2.16006 50.7 1.22006 48.87 1.48006C48.15 -0.519936 45.27 -0.769936 44.73 2.05006C43.78 -0.559936 41.55 1.14006 40.28 2.26006C38.37 4.00006 36 8.91006 35 11.5801C33 17.1501 36.49 19.8301 34.87 25.0901C32.52 32.7101 27.45 40.0901 22.69 47.0901C22 48.0901 21.29 49.0901 20.58 50.0901C20.2438 48.8195 19.7954 47.5813 19.24 46.3901C18.8149 45.3144 18.0446 44.4105 17.05 43.8201C15.75 45.8201 17.15 48.1101 17.69 50.2201C17.95 51.2201 18.23 52.1601 18.48 53.1201C17.89 53.9701 17.32 54.8301 16.76 55.7101C15.46 55.0101 14.25 54.3301 13.45 54.8101C13.093 55.0893 12.8503 55.4894 12.7674 55.935C12.6846 56.3806 12.7673 56.8411 13 57.2301C11.63 57.5901 11.55 59.0101 12.14 59.9901C12.029 59.8222 11.8765 59.6859 11.6974 59.5942C11.5183 59.5025 11.3185 59.4585 11.1175 59.4666C10.9164 59.4746 10.7208 59.5344 10.5496 59.6401C10.3783 59.7458 10.2373 59.8939 10.14 60.0701C9.3 61.3001 11.05 63.0701 11.8 64.5701C11.5563 64.9946 11.2892 65.4052 11 65.8001C10.3081 66.4299 9.56561 67.0019 8.78 67.5101C8.09468 67.9724 7.31022 68.267 6.49 68.3701C6.09892 68.4073 5.70504 68.3382 5.35 68.1701C5.31285 67.8378 5.31285 67.5024 5.35 67.1701C5.27017 67.4609 5.21991 67.7591 5.2 68.0601C4.84821 67.8668 4.53877 67.605 4.29 67.2901C4.46588 67.8165 4.78435 68.2838 5.21 68.6401C5.22351 68.8212 5.24688 69.0015 5.28 69.1801L4.94 69.2901C4.31534 69.071 3.72327 68.7683 3.18 68.3901C3.58704 68.7691 4.03282 69.1043 4.51 69.3901C3.75905 69.6232 3.0213 69.897 2.3 70.2101C1.57 70.5401 0.85 70.8701 0.13 71.2101V224.85H0V306.76H50.51V306.68H523.94C524.32 306.44 524.7 306.18 525.08 305.92C526.08 305.22 526.9 304.32 528.01 303.54C528.74 303.03 530.01 302.81 530.65 302.37C533.15 300.7 535.51 298.06 537.93 295.63C543.93 289.63 550.12 283.46 555.87 277.63C557.14 276.34 558.29 274.7 559.49 273.72C560.69 272.74 562.67 272.1 563.49 271.31C564.31 270.52 564.31 269.82 564.92 269.31C566.85 267.7 570.23 267.08 572.92 265.56C574.82 264.5 576.62 263.32 578.34 262.5C578.34 262.66 578.25 262.82 578.21 262.96C577.88 264.32 578.15 266.07 577.84 266.96C577.35 268.34 575.97 269.35 575.46 270.46C575.12 271.2 575.07 272.2 574.81 272.84C573.891 274.652 572.817 276.382 571.6 278.01C568.39 282.615 564.764 286.916 560.77 290.86C558.54 293.17 555.77 295.62 553.02 298.3C551.81 299.47 550.63 301.04 549.33 302.41C548.03 303.78 546.33 305.05 545.64 306.51C545.623 306.566 545.599 306.62 545.57 306.67H590.08L589.9 306.32L589.76 306.02L589.67 305.83C589.6 305.61 589.53 305.4 589.44 305.19C589.161 304.576 588.797 304.004 588.36 303.49L588.01 303.06C587.827 302.671 587.62 302.294 587.39 301.93C586.976 301.223 586.364 300.653 585.63 300.29C585.128 300.067 584.569 300.004 584.03 300.11C583.279 299.92 582.492 299.92 581.74 300.11C581.74 300.11 581.74 300.06 581.74 300.04L580.3 299.67C580.18 299.95 579.85 299.82 579.58 299.83C579.123 299.789 578.669 299.722 578.22 299.63C577.92 299.52 577.62 299.42 577.33 299.3V299.43L577.12 299.38C575.888 299.033 574.631 298.783 573.36 298.63C575.57 294.78 577.75 291.01 580.05 287.24C581.3 285.18 582.72 283.6 584.05 281.7C585.05 280.27 585.27 278.95 586.11 277.87C587.24 276.42 589.77 275.53 591.66 274.66C593.648 273.899 595.583 273.003 597.45 271.98C598.26 271.45 599.1 270.29 600.05 269.65C600.516 269.369 601.017 269.151 601.54 269C601.79 278 601.78 287 602.23 296.22C602.41 299.8 603.41 302.94 604.16 306.56C604.155 306.603 604.155 306.647 604.16 306.69H638.01C640.11 302.94 642.22 299.11 644.46 295.37C646.458 291.731 648.717 288.242 651.22 284.93C652.6 283.26 655.61 282.02 657.56 280.38C659.51 278.74 661.24 276.76 663.05 275.21C664.86 273.66 666.84 271.86 668.83 270.41C670.82 268.96 673.49 267.88 674.06 265.34C672.15 264 670.2 265.93 668.65 266.92ZM379.47 142.09C378.99 143.35 379.47 144.25 378.47 145.72C377.23 144.34 377.58 142.4 379.47 142.09ZM251.19 154C251.27 153 250.56 151.42 250.89 150.79C251.11 151.66 251.65 153.27 251.19 154ZM231.61 181.27L231.74 181.57C231.659 181.501 231.586 181.424 231.52 181.34L231.61 181.27ZM225.55 105.37C226.45 106.73 225.45 108.08 223.84 108.09C224.17 106.55 225 106.35 225.55 105.32V105.37ZM43.34 5.41006C44.42 7.05006 43.21 8.67006 41.28 8.68006C41.68 6.89006 42.72 6.65006 43.34 5.41006ZM27.34 154.91C29.34 151.91 32.95 148.96 35.95 146.4C37.62 144.97 39.35 143.59 41.05 142.23C41.48 144.78 41.75 147.41 42.28 150.05C41.618 150.395 41.0085 150.833 40.47 151.35C40.41 151.43 38.62 154.74 38.56 155C38.704 156.661 39.0156 158.302 39.49 159.9C39.93 161.27 40.49 162.68 41.11 164.11L26.11 157.3C26.4463 156.469 26.8545 155.67 27.33 154.91H27.34ZM8.55 90.3801C8.70922 90.2973 8.83601 90.1635 8.91 90.0001C8.97796 89.9121 9.05144 89.8286 9.13 89.7501C9.17382 89.7295 9.22161 89.7189 9.27 89.7189C9.31839 89.7189 9.36618 89.7295 9.41 89.7501C9.6 89.9601 9.14 90.4101 9.41 90.5801C8.92 90.4901 8.61 90.9101 8.16 90.9401C8.31 90.7301 8.42 90.5501 8.55 90.3801ZM5.71 69.0001L5.52 69.0701L5.45 68.8601C5.53107 68.9165 5.6183 68.9634 5.71 69.0001ZM68.12 120.1C66.28 119.46 65.78 120.97 65.36 123.58C65.07 125.36 64.68 126.3 65.27 127.68C65.6085 128.73 66.32 129.619 67.27 130.18C66.2232 133.599 65.883 137.195 66.27 140.75C65.68 140.41 65.4 139.47 65.06 138.63C64.92 138.26 64.98 137.95 64.87 137.75C64.54 137.17 63.87 136.81 63.44 136.12C62.55 134.79 62.07 132.94 61.1 131.7C60.0341 130.399 58.8191 129.228 57.48 128.21C60.0891 126.279 62.4829 124.073 64.62 121.63C65.05 121.12 66.11 120.16 66.18 119.96C66.59 118.74 65.11 117.78 65.41 116.96C65.41 116.86 67.41 115.76 69.25 114.77C68.6992 116.505 68.3207 118.291 68.12 120.1ZM101.07 113.55C100.49 114.07 99.69 113.63 98.74 114.39C98.0871 115.057 97.5947 115.864 97.3 116.75C96.5939 118.343 96.1094 120.025 95.86 121.75C95.8163 122.61 95.7094 123.466 95.54 124.31C95.43 124.61 95.38 124.39 95.21 124.59C94.8034 125.384 94.4913 126.223 94.28 127.09C93.71 128.5 93.8 130.26 93.28 131.75C93.17 132.06 92.91 132.23 92.8 132.54C92.69 132.85 92.86 133.63 92.68 133.98C92.369 134.378 92.0946 134.803 91.86 135.25C91.4566 136.502 91.2081 137.798 91.12 139.11C91.0868 139.312 91.0701 139.516 91.07 139.72C91.075 139.76 91.075 139.8 91.07 139.84C89.6919 139.833 88.3448 140.248 87.21 141.03C86.3023 141.804 85.4688 142.661 84.72 143.59C84.3896 142.751 84.3896 141.819 84.72 140.98C85.1 140.16 86.46 139.51 87.11 138.32C87.48 137.62 87.64 136.6 88.11 135.62C88.58 134.64 89.52 133.83 89.94 132.9C90.21 132.3 90.21 131.57 90.43 130.95C91.29 128.47 92.6 127.26 91.2 125.78C94.42 119.3 93.36 114.52 89.73 110.32C88.4132 108.838 86.8024 107.646 85 106.82C85.55 106.47 86.1 106.11 86.65 105.73C87.65 105.03 88.47 104.13 89.57 103.36C90.3 102.84 91.57 102.62 92.22 102.18C94.72 100.52 97.07 97.8701 99.5 95.4401L105.56 89.3801C105.86 89.8601 106.27 90.3801 106.56 90.9901C106.67 91.1801 106.56 91.6101 106.7 91.8301C106.84 92.0501 107.3 92.4001 107.36 92.6101C107.415 93.4325 107.415 94.2577 107.36 95.0801C107.15 96.0001 106.18 97.0801 105.88 98.0801C105.37 99.8101 105.88 101.89 105.28 104.08C104.44 106.548 103.414 108.948 102.21 111.26C101.908 112.06 101.526 112.827 101.07 113.55ZM129.32 159.92C129.225 160.379 129.225 160.852 129.32 161.31C127.66 159.82 126.38 157.76 123.78 156.58C124.71 154.83 127.6 157.9 128.95 155.58C128.521 154.922 127.924 154.39 127.221 154.038C126.518 153.687 125.734 153.529 124.95 153.58C127.03 151.907 129.147 150.24 131.3 148.58C131.155 148.999 131.051 149.431 130.99 149.87C130.712 151.111 130.668 152.393 130.86 153.65C131.11 154.79 130.78 156.06 131.2 157.14C131.33 157.46 131.41 157.74 131.54 158.03C131.67 158.32 131.54 158.39 131.59 158.56C131.296 158.455 130.974 158.455 130.68 158.56C130.357 158.654 130.063 158.828 129.826 159.066C129.588 159.304 129.414 159.597 129.32 159.92ZM131.64 160.62C131.64 160.79 131.64 160.95 131.64 161.11C131.64 161.27 131.59 161.23 131.56 161.3C131.196 161.18 130.804 161.18 130.44 161.3C130.12 160.57 130.14 159.44 130.87 159.08C130.981 159.011 131.109 158.974 131.24 158.974C131.371 158.974 131.499 159.011 131.61 159.08C131.61 159.44 131.68 159.8 131.72 160.08C131.568 160.109 131.412 160.109 131.26 160.08C131.403 160.155 131.559 160.202 131.72 160.22C131.67 160.39 131.65 160.53 131.64 160.62ZM143 135C143.1 134.75 143.21 134.51 143.31 134.25C143.41 133.99 143.47 133.88 143.55 133.69C143.962 134.519 144.232 135.412 144.35 136.33C143.73 136.42 143.44 135.71 143 135ZM156.14 177.27C155.51 176.97 154.62 177.1 154.38 176.92C153.716 176.2 153.293 175.291 153.17 174.32V174.25L153.35 174.46L153.54 174.64L153.39 174.41L153.17 174.02C153.17 173.95 153.17 173.87 153.17 173.8L153.22 173.88C153.327 174.047 153.444 174.207 153.57 174.36C153.503 174.265 153.443 174.164 153.39 174.06L153.33 173.96L153.62 174.22C153.823 174.402 154.044 174.563 154.28 174.7C154.356 174.748 154.436 174.788 154.52 174.82L154.32 174.63C154.249 174.567 154.185 174.497 154.13 174.42C154.33 174.566 154.548 174.683 154.78 174.77C154.859 174.798 154.939 174.821 155.02 174.84C154.947 174.803 154.876 174.759 154.81 174.71C154.604 174.57 154.419 174.402 154.26 174.21C154.071 173.986 153.903 173.745 153.76 173.49L153.89 173.61C154.053 173.746 154.223 173.873 154.4 173.99C154.454 174.027 154.511 174.06 154.57 174.09L154.44 173.95C154.288 173.806 154.154 173.645 154.04 173.47C153.91 173.28 153.78 173.08 153.66 172.87C153.699 172.904 153.736 172.941 153.77 172.98C153.734 172.93 153.704 172.877 153.68 172.82C153.606 172.684 153.549 172.54 153.51 172.39C153.551 172.436 153.594 172.479 153.64 172.52C153.677 172.619 153.732 172.71 153.8 172.79C153.757 172.729 153.723 172.661 153.7 172.59C153.833 172.727 153.977 172.854 154.13 172.97C154.283 173.09 154.443 173.2 154.61 173.3C154.658 173.337 154.712 173.364 154.77 173.38C154.725 173.349 154.685 173.312 154.65 173.27L154.42 173.04L154.58 173.11L154.73 173.18L154.6 173.07C154.469 172.972 154.351 172.858 154.25 172.73C154.14 172.589 154.049 172.435 153.98 172.27L154.05 172.34C154.143 172.435 154.243 172.522 154.35 172.6L154.46 172.66C154.46 172.66 154.46 172.6 154.37 172.57C154.288 172.479 154.217 172.378 154.16 172.27C154.026 172.01 153.951 171.723 153.94 171.43C154.012 171.636 154.128 171.823 154.28 171.98L154.41 172.09C154.63 172.58 154.84 173.09 155.05 173.56C155.67 175.01 156.34 176.56 157.05 178.09C156.791 177.798 156.499 177.536 156.18 177.31L156.14 177.27ZM175.29 220.46C174.9 220.32 174.57 219.92 174.11 219.74C173.24 219.4 171.63 218.74 170.81 218.54C170.2 218.37 169.22 218.54 168.75 218.37C168.46 218.26 168.15 217.72 167.89 217.58C168.18 217.02 168.47 216.48 168.8 215.96C170.25 213.66 171.4 211.08 172.67 208.75C173.284 209.564 173.807 210.443 174.23 211.37C175.01 213.18 175.43 215.42 176.08 217.51C176.42 218.61 176.75 219.7 177.08 220.8C176.54 220.66 175.9 220.7 175.33 220.5L175.29 220.46ZM205.27 216C204.644 215.973 204.027 215.834 203.45 215.59C204.14 213.95 204.9 212.36 205.72 210.84C205.836 212.573 205.684 214.313 205.27 216ZM282.59 220.53C282.864 221.384 283.299 222.178 283.87 222.87L284.52 223.55C283.525 222.881 282.731 221.955 282.22 220.87L282.59 220.53ZM281.41 221.62C281.547 221.965 281.711 222.3 281.9 222.62C282.3 223.247 282.773 223.825 283.31 224.34L282.78 223.92C282.297 223.496 281.868 223.016 281.5 222.49C282.107 223.439 282.899 224.256 283.83 224.89L284.5 225.33L284.74 225.48V225.68C283.468 225.08 282.341 224.21 281.44 223.13C281.203 222.831 280.986 222.517 280.79 222.19L281.41 221.62ZM280.76 222.23C280.94 222.57 281.07 222.83 281.32 223.23C282.183 224.453 283.298 225.476 284.59 226.23L284.81 226.35C284.87 226.8 284.94 227.25 284.99 227.72C283.937 227.338 282.93 226.839 281.99 226.23C281.511 225.889 281.053 225.518 280.62 225.12C281.023 225.551 281.454 225.956 281.91 226.33C282.634 226.888 283.411 227.374 284.23 227.78C281.915 227.466 279.709 226.598 277.8 225.25C278.65 224.32 279.7 223.26 280.76 222.24V222.23ZM276.99 226.23C277.29 226.48 277.61 226.72 277.93 226.94C277.584 226.739 277.25 226.519 276.93 226.28C276.937 226.267 276.947 226.256 276.959 226.247C276.971 226.238 276.985 226.233 277 226.23H276.99ZM276.6 226.92C277.012 227.284 277.45 227.618 277.91 227.92C277.451 227.667 277.01 227.383 276.59 227.07C276.59 227.07 276.6 227 276.6 226.92ZM276.5 227.82C276.782 228.031 277.076 228.224 277.38 228.4C277.074 228.236 276.777 228.055 276.49 227.86C276.497 227.848 276.5 227.834 276.5 227.82ZM276.24 229.19C277.38 229.946 278.623 230.536 279.93 230.94C280.826 231.251 281.741 231.505 282.67 231.7C280.511 231.406 278.421 230.729 276.5 229.7C276.38 229.63 276.28 229.55 276.17 229.48C276.2 229.385 276.223 229.288 276.24 229.19ZM278.96 228.69L279.57 228.94L280.24 229.21C279.82 229 279.37 228.9 279 228.69H278.96ZM276.09 229.69L276.64 230.03L277.25 230.39C276.85 230.2 276.46 229.97 276.07 229.74L276.09 229.69ZM275.63 230.69C275.983 230.91 276.333 231.11 276.68 231.29C277.607 231.749 278.566 232.14 279.55 232.46C280.2 232.67 280.84 232.86 281.49 233.01C279.408 232.613 277.415 231.84 275.61 230.73C275.61 230.73 275.63 230.77 275.63 230.76V230.69ZM275.44 231.09C275.903 231.386 276.384 231.653 276.88 231.89C276.379 231.665 275.892 231.411 275.42 231.13L275.44 231.09ZM280.35 234.01H278.91C278.12 233.84 275.63 232.86 275.14 232.07C275.094 231.951 275.094 231.819 275.14 231.7C276.206 232.336 277.331 232.865 278.5 233.28C279.261 233.545 280.035 233.768 280.82 233.95L280.35 234.01ZM281.51 233.92C280.522 233.73 279.547 233.48 278.59 233.17C277.418 232.766 276.287 232.254 275.21 231.64C275.25 231.527 275.3 231.407 275.36 231.28C277.417 232.489 279.666 233.335 282.01 233.78L281.51 233.92ZM283.58 232.92C283.545 232.956 283.509 232.989 283.47 233.02C283.01 232.96 282.54 232.9 282.07 232.82C279.839 232.396 277.698 231.591 275.74 230.44L275.84 230.23C278.211 231.649 280.849 232.562 283.59 232.91L283.58 232.92ZM285.02 228.68C282.199 228.488 279.482 227.534 277.16 225.92L277.37 225.66C277.771 225.99 278.195 226.291 278.64 226.56C280.609 227.662 282.785 228.343 285.03 228.56L285.02 228.68ZM278.71 226.42C278.269 226.169 277.848 225.885 277.45 225.57L277.67 225.33C279.819 226.937 282.362 227.935 285.03 228.22C285.035 228.25 285.035 228.28 285.03 228.31C282.823 228.148 280.672 227.535 278.71 226.51V226.42ZM285.77 222.14C285.256 221.731 284.819 221.233 284.48 220.67C284.332 220.44 284.214 220.191 284.13 219.93C284.172 220.208 284.256 220.478 284.38 220.73C284.676 221.38 285.093 221.967 285.61 222.46C285.47 222.73 285.34 223.01 285.22 223.28C284.866 223.041 284.531 222.773 284.22 222.48C283.592 221.862 283.096 221.124 282.76 220.31L283.55 219.6C284.16 219.06 284.81 218.54 285.46 218.03C284.93 219.49 284.78 220.75 286.08 221.51C286 221.82 285.87 222 285.77 222.23V222.14ZM326 226.91C325.741 226.76 325.522 226.551 325.36 226.3C325.59 226.485 325.804 226.689 326 226.91ZM318 223C319.49 223.045 320.962 223.346 322.35 223.89C322.264 223.88 322.176 223.88 322.09 223.89C321.505 223.645 320.895 223.468 320.27 223.36C319.396 223.194 318.51 223.101 317.62 223.08C317.62 223.08 317.83 223 318 223ZM317.76 223.22C318.23 223.22 318.76 223.22 319.21 223.3C320.061 223.397 320.902 223.575 321.72 223.83H321.58C320.327 223.454 319.028 223.255 317.72 223.24L317.76 223.22ZM321.36 223.84H321.3C320.143 223.524 318.95 223.36 317.75 223.35C318.957 223.364 320.157 223.535 321.32 223.86L321.36 223.84ZM319.22 223.26C318.702 223.204 318.181 223.177 317.66 223.18V223.12C318.538 223.136 319.414 223.217 320.28 223.36C320.879 223.461 321.466 223.626 322.03 223.85H321.88H321.79C320.942 223.569 320.068 223.378 319.18 223.28L319.22 223.26ZM317.57 223.46C317.61 223.62 317.689 223.768 317.8 223.89H317.26C316.994 223.81 316.742 223.692 316.51 223.54C316.78 223.54 317.04 223.54 317.31 223.54L317.57 223.46ZM317.57 223.33H317.35C317.01 223.33 316.68 223.33 316.35 223.33C316.66 223.35 317.07 223.35 317.49 223.35L317.57 223.33ZM316.15 223.17C316.62 223.17 317.09 223.17 317.57 223.17V223.23C317 223.18 316.53 223.17 316.07 223.19L316.15 223.17ZM316.02 223.04C316.53 223.04 317.02 223.04 317.56 223.04C317 223 316.45 223 315.94 223.06L316.02 223.04ZM317.54 222.83C317.54 222.83 317.54 222.83 317.54 222.88C317 222.88 316.46 222.88 315.93 222.88V222.82C316.403 222.82 316.913 222.83 317.46 222.85L317.54 222.83ZM315.72 222.83C314.61 222.83 313.51 222.96 312.44 223.1C313.46 223 314.54 222.91 315.64 222.86L315.72 222.83ZM315.81 223.01C315.06 223.01 314.32 223.1 313.6 223.18C314.26 223.15 315 223.08 315.73 223L315.81 223.01ZM315.88 223.13C315.37 223.13 314.88 223.13 314.36 223.22C314.8 223.24 315.3 223.19 315.8 223.16L315.88 223.13ZM315.23 223.41H315.87H315.26H315.23ZM315.51 223.55H316.19C316.321 223.671 316.462 223.781 316.61 223.88H315.97C315.809 223.749 315.626 223.648 315.43 223.58L315.51 223.55ZM316.06 223.93H316.76H316.81H316H316.06ZM316.23 224.11C316.54 224.11 316.85 224.11 317.15 224.11C316.84 224.11 316.53 224.11 316.23 224.11ZM317.23 224.24H316.31C316.67 224.24 317.03 224.24 317.39 224.24C317.323 224.244 317.256 224.255 317.19 224.27L317.23 224.24ZM317.69 223.95H317.61H317.86H317.69ZM319.82 262.3L320.54 261.37C320.54 261.59 320.54 261.81 320.54 262.03L319.82 262.3ZM320.67 262C320.67 261.71 320.67 261.43 320.67 261.15L320.8 260.99C320.86 261.28 320.92 261.58 321 261.86L320.67 262ZM319.67 223.92H319.57H319.23C318.831 223.938 318.435 223.841 318.09 223.64C318.009 223.59 317.937 223.526 317.88 223.45C318.971 223.456 320.057 223.584 321.12 223.83L319.67 223.92ZM340.01 245.7C338.84 249.59 336.58 253.11 335.55 257.03C335.41 257.59 335.29 258.17 335.18 258.74C334.19 259.173 333.248 259.71 332.37 260.34C331.14 258.56 330.56 259 328.37 259.41C327.48 259.58 326.5 259.56 326.05 259.68C324.89 259.98 323.6 260.9 322.18 261.44L321.18 261.8C321.135 261.398 321.115 260.994 321.12 260.59C321.52 260.06 321.93 259.53 322.34 259.01C323.203 258.388 323.892 257.555 324.34 256.59C325.08 255.77 325.92 254.94 326.64 254.21C326.96 253.88 327.3 253.57 327.64 253.21C327.64 253.38 327.64 253.55 327.71 253.72C327.71 253.52 327.71 253.33 327.71 253.13C329.51 251.47 331.4 249.93 332.45 247.99C332.81 247.33 332.78 246.36 333.21 245.47C333.64 244.58 334.65 243.16 335.43 241.87C336.791 239.691 338.42 237.692 340.28 235.92C340.28 236.11 340.28 236.3 340.28 236.5C340.22 239.55 341 242.22 339.94 245.73L340.01 245.7ZM386.36 241.16C385.72 242.04 384.87 242.62 384.29 243.58C384.139 243.833 384.015 244.101 383.92 244.38C382.48 246.13 381.19 247.86 382.77 249.51C382.645 250 382.478 250.479 382.27 250.94C381.509 252.373 380.874 253.868 380.37 255.41L380.24 255.51C379.917 255.783 379.548 255.996 379.15 256.14C379.047 256.155 378.943 256.155 378.84 256.14C378.953 256.179 379.071 256.202 379.19 256.21C379.444 256.211 379.696 256.16 379.93 256.06C379.669 256.279 379.366 256.443 379.04 256.54C378.898 256.57 378.755 256.59 378.61 256.6H378.46L378.61 256.65C378.758 256.682 378.909 256.699 379.06 256.7H379.18C378.985 256.778 378.779 256.826 378.57 256.84C378.381 256.865 378.189 256.865 378 256.84H377.8L377.99 256.91L378.17 256.98H377.6C377.664 257.011 377.731 257.034 377.8 257.05C378.017 257.113 378.237 257.163 378.46 257.2C378.68 257.2 378.9 257.2 379.13 257.26C379.05 257.294 378.966 257.318 378.88 257.33C379.002 257.321 379.123 257.298 379.24 257.26H379.46C379.297 257.343 379.126 257.41 378.95 257.46L378.74 257.51H378.93C378.656 257.578 378.379 257.631 378.1 257.67C377.86 257.685 377.62 257.685 377.38 257.67H377.15C377.221 257.699 377.295 257.723 377.37 257.74C377.612 257.805 377.86 257.849 378.11 257.87H378.31C377.982 257.949 377.647 258 377.31 258.02C377.018 258.037 376.725 258.013 376.44 257.95L376.16 257.87L376.41 258.02C376.671 258.147 376.946 258.241 377.23 258.3H376.89H376.57C376.667 258.345 376.767 258.382 376.87 258.41C377.176 258.505 377.491 258.565 377.81 258.59C377.963 258.6 378.117 258.6 378.27 258.59H378.13L377.73 258.67C377.97 258.67 378.2 258.67 378.42 258.59H378.53L378.34 258.76L377.83 258.89L377.52 258.95H378.15L378.09 259C377.162 259.675 376.047 260.042 374.9 260.05C374.55 259.98 373.95 259.12 373.19 258.82C372.43 258.52 371.54 258.98 370.31 258.19C368.25 256.88 368.72 255.19 369.15 252.95C371.34 251.41 373.4 249.69 375.44 248.13C377.77 246.34 380.17 244.6 382.59 242.88C382.634 242.946 382.69 243.002 382.756 243.046C382.822 243.09 382.896 243.12 382.973 243.135C383.051 243.151 383.131 243.151 383.208 243.135C383.286 243.12 383.359 243.089 383.425 243.045C383.491 243.001 383.547 242.945 383.591 242.879C383.635 242.813 383.665 242.739 383.68 242.662C383.696 242.584 383.696 242.504 383.68 242.427C383.665 242.349 383.634 242.276 383.59 242.21C384.77 241.39 385.94 240.56 387.14 239.76C386.9 240.261 386.616 240.74 386.29 241.19L386.36 241.16ZM398.48 272.5V272.42L398.56 272.26C398.56 272.4 398.49 272.55 398.47 272.69C398.446 272.638 398.426 272.585 398.41 272.53L398.48 272.5ZM412.35 270C412.25 270.42 412.35 270.9 412.24 271.3C410.94 272.21 410.56 276.13 410.79 278.22C410.999 279.382 411.43 280.492 412.06 281.49V281.54C411.826 284.009 411.85 286.496 412.13 288.96C412.24 291.12 412.31 293.27 412.36 295.42C410.06 295.77 407.79 296.32 405.46 296.79C405.1 296.305 404.767 295.801 404.46 295.28C403.16 292.96 401.94 290.71 400.69 288.14C400.006 287.008 399.404 285.829 398.89 284.61C398.63 283.74 398.95 282.61 398.69 281.61C398.47 280.81 397.64 280.27 397.4 279.45C397.16 278.63 397.28 276.88 397.08 275.68C397.02 275.37 396.98 275.09 396.94 274.83C396.94 274.92 397.01 275.01 397.06 275.1C397.114 275.197 397.174 275.291 397.24 275.38C397.24 275.26 397.17 275.2 397.13 275.08C397.061 274.822 397.021 274.557 397.01 274.29C397.021 274.317 397.038 274.341 397.06 274.36C397.06 274.36 397.06 274.46 397.06 274.51C397.06 274.56 397.14 274.68 397.19 274.79C397.19 274.69 397.19 274.63 397.19 274.54C397.267 274.627 397.354 274.705 397.45 274.77L397.75 274.95L397.5 274.72C397.359 274.585 397.244 274.426 397.16 274.25V274.12L397.22 274.2C397.288 274.282 397.362 274.358 397.44 274.43L397.28 274.17C397.228 274.052 397.191 273.927 397.17 273.8C397.17 273.73 397.17 273.66 397.17 273.59C397.17 273.52 397.17 273.3 397.23 273.16V273.26C397.25 273.382 397.276 273.502 397.31 273.62C397.295 273.41 397.295 273.2 397.31 272.99V272.84L397.39 272.53V272.75C397.396 272.773 397.396 272.797 397.39 272.82C397.39 272.96 397.39 273.1 397.39 273.23C397.39 273.36 397.39 273.37 397.45 273.46V273.39C397.445 273.44 397.445 273.49 397.45 273.54C397.463 273.623 397.487 273.703 397.52 273.78V273.54C397.52 273.289 397.54 273.038 397.58 272.79C397.58 272.58 397.65 272.37 397.69 272.15C397.73 271.93 397.89 271.73 398.01 271.52C398.01 271.59 398.01 271.65 398.01 271.71C397.997 271.748 397.981 271.785 397.96 271.82C397.847 272.08 397.75 272.348 397.67 272.62C397.67 272.74 397.67 272.81 397.6 272.94C397.631 272.835 397.667 272.731 397.71 272.63C397.802 272.401 397.912 272.181 398.04 271.97C398.034 272.053 398.034 272.137 398.04 272.22C398.04 272.22 398.04 272.27 398.04 272.3C398.009 272.529 398.009 272.761 398.04 272.99C398.04 273.06 398.04 273.12 398.04 273.18C398.03 273.286 398.03 273.394 398.04 273.5C398.03 273.397 398.03 273.293 398.04 273.19C398.035 273.17 398.035 273.15 398.04 273.13C398.057 273.035 398.081 272.942 398.11 272.85C398.137 272.965 398.171 273.079 398.21 273.19C398.206 273.21 398.206 273.23 398.21 273.25C398.197 273.412 398.233 273.573 398.314 273.714C398.394 273.855 398.515 273.969 398.66 274.04C398.753 274.073 398.851 274.094 398.95 274.1C398.86 274.077 398.772 274.044 398.69 274C398.577 273.924 398.489 273.815 398.437 273.689C398.386 273.563 398.373 273.424 398.4 273.29C398.409 273.385 398.43 273.479 398.46 273.57C398.496 273.646 398.547 273.714 398.61 273.77C398.569 273.706 398.542 273.635 398.53 273.56C398.503 273.315 398.538 273.068 398.63 272.84C398.672 272.723 398.722 272.61 398.78 272.5V272.62V272.92C398.809 272.743 398.853 272.57 398.91 272.4V272.28L399.04 272.04L398.99 272.22C398.99 272.45 398.91 272.67 398.89 272.88C398.885 272.95 398.885 273.02 398.89 273.09C398.905 273.025 398.926 272.962 398.95 272.9C399.006 272.694 399.079 272.493 399.17 272.3C399.406 271.819 399.67 271.351 399.96 270.9C399.812 271.299 399.701 271.711 399.63 272.13C399.59 272.338 399.563 272.549 399.55 272.76C399.54 272.826 399.54 272.894 399.55 272.96C399.545 272.9 399.545 272.84 399.55 272.78C399.6 272.6 399.67 272.4 399.74 272.21C399.983 271.587 400.295 270.993 400.67 270.44C400.774 270.273 400.906 270.124 401.06 270C401.604 269.959 402.132 269.802 402.61 269.54C403.13 269.2 403.69 268.93 404.23 268.62C404.608 268.087 405.079 267.626 405.62 267.26C405.86 267.08 405.99 267.48 406.14 267.32C406.29 267.16 406.56 266.85 406.78 266.63L407.11 266.23C407.58 265.9 408.06 265.53 408.58 265.12L409.2 264.65C409.56 264.53 409.86 264.37 410.2 264.22C410.373 264.151 410.541 264.067 410.7 263.97L411.27 265.45C411.185 265.478 411.098 265.501 411.01 265.52C410.564 265.52 410.126 265.402 409.74 265.18C410.087 265.504 410.522 265.72 410.99 265.8C411.126 265.815 411.264 265.815 411.4 265.8C411.51 266.08 411.61 266.36 411.71 266.63C411.296 266.852 410.83 266.959 410.36 266.94C410.782 267.06 411.228 267.06 411.65 266.94C411.646 266.977 411.646 267.014 411.65 267.05C411.639 267.014 411.639 266.976 411.65 266.94H411.77C411.92 267.39 412.07 267.85 412.18 268.3C412.24 268.56 412.3 268.82 412.35 269.08C412.291 269.383 412.268 269.692 412.28 270H412.35ZM428.35 253.52C427.395 253.582 426.448 253.729 425.52 253.96C425.7 253.68 425.87 253.39 426.05 253.09C426.314 253.147 426.581 253.191 426.85 253.22C427.377 253.265 427.899 253.355 428.41 253.49L428.35 253.52ZM433.69 254.14C433.695 254.213 433.695 254.287 433.69 254.36V254.42L433.28 254.26C433.28 253.91 433.33 253.56 433.38 253.26C433.52 252.35 433.64 252.93 433.79 252.62L434.08 252.56H434.14C433.971 252.945 433.86 253.353 433.81 253.77H433.74C433.697 253.9 433.667 254.034 433.65 254.17L433.69 254.14ZM446.37 270.85C446.046 270.852 445.725 270.798 445.42 270.69C445.42 270.6 445.42 270.52 445.42 270.43C445.93 270.55 446.6 270.43 446.33 270.88L446.37 270.85ZM445.37 269.55H445.8L445.85 269.6L445.34 269.68L445.37 269.55ZM445.09 270.39V270.57C444.952 270.501 444.819 270.424 444.69 270.34L445.09 270.39ZM444.34 272.31C444.318 272.214 444.302 272.117 444.29 272.02C444.315 272.037 444.337 272.059 444.353 272.085C444.37 272.11 444.381 272.139 444.385 272.169C444.39 272.199 444.388 272.23 444.381 272.259C444.373 272.289 444.359 272.316 444.34 272.34V272.31ZM443.34 275.57C443.669 275.645 444.003 275.688 444.34 275.7L444.23 275.83C443.951 275.995 443.66 276.139 443.36 276.26C443.367 276.2 443.367 276.14 443.36 276.08C443.328 275.921 443.331 275.757 443.37 275.6L443.34 275.57ZM442.4 278.57C442.771 278.504 443.116 278.338 443.4 278.09C443.453 278.273 443.453 278.467 443.4 278.65C443.057 278.9 442.684 279.105 442.29 279.26C442.38 279.06 442.41 278.83 442.43 278.6L442.4 278.57ZM442 281H442.06C442.104 280.997 442.147 281.004 442.187 281.022C442.227 281.039 442.263 281.066 442.29 281.1C442.284 281.169 442.26 281.234 442.22 281.29C442.119 281.331 442.016 281.364 441.91 281.39L442 281ZM441.77 281.89C442.103 281.919 442.437 281.919 442.77 281.89C443.1 281.84 443.45 281.77 443.77 281.69C444.14 281.616 444.52 281.616 444.89 281.69C444.515 282.162 444.085 282.588 443.61 282.96C443.17 283.317 442.634 283.536 442.07 283.59H441.93C441.697 283.521 441.47 283.434 441.25 283.33C441.51 282.86 441.66 282.38 441.8 281.89H441.77ZM441.23 283.5L441.32 283.56H441.22L441.23 283.5ZM438.23 287.16C438.23 287.11 438.23 287.05 438.23 287C438.524 286.941 438.804 286.822 439.05 286.65C439.498 286.953 439.97 287.221 440.46 287.45C441.307 287.981 442.201 288.433 443.13 288.8C443.125 288.911 443.108 289.022 443.08 289.13C443.012 289.513 442.842 289.871 442.589 290.166C442.336 290.462 442.008 290.684 441.64 290.81C441.339 290.903 441.022 290.933 440.709 290.899C440.396 290.865 440.094 290.766 439.82 290.61C439.29 289.48 438.75 288.32 438.23 287.16ZM442.36 292.76C442.018 292.944 441.645 293.062 441.26 293.11L441.16 292.95C440.74 292.25 440.35 291.53 439.98 290.81C440.505 291.182 441.153 291.34 441.79 291.25C442.355 291.157 442.877 290.887 443.28 290.48C443.24 291.51 443.21 292.29 442.36 292.76ZM444.7 285.68C444.294 286.098 443.758 286.366 443.18 286.44C442.682 286.477 442.182 286.387 441.729 286.177C441.276 285.967 440.884 285.644 440.59 285.24C440.976 285.958 441.608 286.512 442.37 286.8C442.339 286.84 442.317 286.885 442.304 286.934C442.292 286.982 442.289 287.033 442.296 287.082C442.304 287.132 442.321 287.179 442.348 287.222C442.374 287.264 442.409 287.301 442.45 287.33H442.16C441.142 287.264 440.145 287.01 439.22 286.58C440.144 285.778 440.835 284.741 441.22 283.58C441.392 283.661 441.574 283.721 441.76 283.76C441.915 283.844 442.076 283.917 442.24 283.98C442.383 284.109 442.555 284.202 442.74 284.252C442.926 284.303 443.121 284.309 443.31 284.27C443.79 284.341 444.279 284.318 444.75 284.2L444.93 284.25C445.026 284.739 444.945 285.246 444.7 285.68ZM445.23 274.57C445.199 274.615 445.166 274.659 445.13 274.7C444.59 274.927 443.999 275.003 443.42 274.92C443.38 274.662 443.414 274.399 443.52 274.16C443.618 274.112 443.722 274.078 443.83 274.06C443.742 273.908 443.696 273.736 443.696 273.56C443.696 273.385 443.742 273.212 443.83 273.06C443.83 272.92 443.96 272.88 444.06 272.91C444.222 273.271 444.465 273.589 444.77 273.84C444.923 273.969 445.1 274.067 445.29 274.13C445.255 274.274 445.235 274.422 445.23 274.57ZM445.29 273.96C445.035 273.795 444.822 273.573 444.67 273.31C444.724 273.363 444.789 273.404 444.86 273.43C445.04 272.76 444.49 272.33 444.53 271.66C444.53 271.66 444.53 271.57 444.53 271.49V271.56C444.839 271.909 445.26 272.139 445.72 272.21C445.625 272.817 445.481 273.416 445.29 274V273.96ZM447.92 290.73C447.27 290.62 446.92 291.38 446.2 291C446.26 290.881 446.31 290.757 446.35 290.63C446.41 290.487 446.461 290.34 446.5 290.19C446.537 290.24 446.564 290.296 446.577 290.357C446.591 290.417 446.592 290.479 446.58 290.54C447.5 290.87 447.22 289.69 447.89 289.91C448.07 290.12 447.62 290.57 447.92 290.73ZM598.17 263.48C599.136 262.46 600.168 261.504 601.26 260.62C601.26 261.16 601.26 261.7 601.26 262.23C600.255 262.705 599.223 263.123 598.17 263.48ZM604.09 218.7C604.58 218 603.4 216.81 604.23 216.7C604 217.27 605.23 218.45 604.09 218.7Z" fill="black"/>
</svg>
